<?xml version="1.0" encoding="UTF-8" standalone="no"?>
<svg width="470px" height="470px" viewBox="0 0 470 470" version="1.1" xmlns="http://www.w3.org/2000/svg" xmlns:xlink="http://www.w3.org/1999/xlink" xmlns:sketch="http://www.bohemiancoding.com/sketch/ns">
    <!-- Generator: Sketch 3.3.3 (12072) - http://www.bohemiancoding.com/sketch -->
    <title>white logo</title>
    <desc>Created with Sketch.</desc>
    <defs></defs>
    <g id="Page-2" stroke="none" stroke-width="1" fill="none" fill-rule="evenodd" sketch:type="MSPage">
        <g id="white-logo" sketch:type="MSArtboardGroup">
            <g id="Oval-1-Copy-2-+-cljs_logo-01-copy-2" sketch:type="MSLayerGroup" transform="translate(16.000000, 16.000000)">
                <circle id="Oval-1-Copy-2" fill="#FFFFFF" sketch:type="MSShapeGroup" cx="219.5" cy="219.5" r="219.5"></circle>
                <g id="cljs_logo-01-copy-2" transform="translate(20.000000, 21.000000)" sketch:type="MSShapeGroup">
                    <g id="Group" transform="translate(69.000000, 131.000000)">
                        <path d="M38.8,120 C26.1,120 16.5,116.291475 9.9,108.874424 C3.3,101.457373 0,90.8329493 0,77.0011521 C0,62.8686636 3.4,52.0437788 10.3,44.4262673 C17.2,36.8087558 27.1,33 40.2,33 C49,33 57,34.6036866 64,37.9112903 L58.6,52.2442396 C51.1,49.3375576 44.9,47.8341014 40,47.8341014 C25.5,47.8341014 18.3,57.4562212 18.3,76.7004608 C18.3,86.1221198 20.1,93.1382488 23.7,97.9493088 C27.3,102.660138 32.6,105.065668 39.6,105.065668 C47.5,105.065668 55,103.06106 62.1,99.1520737 L62.1,114.687788 C58.9,116.592166 55.5,117.895161 51.9,118.697005 C48.3,119.599078 43.9,120 38.8,120 L38.8,120 Z" id="Shape" fill="#96CA4B"></path>
                        <path d="M112,118 L94,118 L94,-5.68434189e-14 L112,-5.68434189e-14 L112,118 L112,118 Z" id="Shape" fill="#96CA4B"></path>
                        <path d="M140.400504,155 C135.060453,155 130.526448,154.4 127,153.1 L127,139 C130.425693,139.9 133.952141,140.4 137.579345,140.4 C145.236776,140.4 149.065491,136.1 149.065491,127.5 L149.065491,34 L167,34 L167,128.7 C167,137.3 164.68262,143.9 160.148615,148.3 C155.513854,152.8 148.964736,155 140.400504,155 L140.400504,155 Z M148,12.0507614 C148,8.80203046 148.9,6.36548223 150.6,4.63959391 C152.3,2.91370558 154.8,2 158.1,2 C161.2,2 163.7,2.91370558 165.4,4.63959391 C167.1,6.36548223 168,8.9035533 168,12.0507614 C168,15.0964467 167.1,17.5329949 165.4,19.3604061 C163.7,21.0862944 161.2,22 158.1,22 C154.9,22 152.4,21.0862944 150.6,19.3604061 C148.8,17.5329949 148,15.0964467 148,12.0507614 L148,12.0507614 Z" id="Shape" fill="#5F7FBF"></path>
                        <path d="M260,94.6124567 C260,102.84083 256.980519,109.062284 251.042208,113.477509 C245.003247,117.892734 236.448052,120 225.275974,120 C214.003247,120 205.045455,118.294118 198.201299,114.882353 L198.201299,99.4290657 C208.064935,103.944637 217.324675,106.252595 225.87987,106.252595 C236.850649,106.252595 242.386364,102.941176 242.386364,96.3183391 C242.386364,94.2110727 241.782468,92.4048443 240.574675,91 C239.366883,89.5951557 237.353896,88.0899654 234.535714,86.5847751 C231.717532,85.0795848 227.892857,83.3737024 222.86039,81.467128 C213.198052,77.7543253 206.555195,73.9411765 203.133117,70.2283737 C199.711039,66.5155709 198,61.5986159 198,55.6782007 C198,48.4532872 200.918831,42.9342561 206.756494,38.9204152 C212.594156,34.9065744 220.444805,33 230.50974,33 C240.373377,33 249.733766,35.0069204 258.590909,39.0207612 L252.753247,52.467128 C243.694805,48.7543253 236.045455,46.8477509 229.805195,46.8477509 C220.344156,46.8477509 215.613636,49.5570934 215.613636,54.8754325 C215.613636,57.4844291 216.821429,59.6920415 219.337662,61.5986159 C221.753247,63.4048443 227.188312,65.9134948 235.441558,69.1245675 C242.386364,71.83391 247.418831,74.2422145 250.63961,76.449827 C253.75974,78.6574394 256.074675,81.266436 257.685065,84.1764706 C259.194805,86.9861592 260,90.4982699 260,94.6124567 L260,94.6124567 Z" id="Shape" fill="#5F7FBF"></path>
                    </g>
                    <path d="M183,376.789819 C91.8,368.685736 20,291.746976 20,198.39995 C20,105.052923 91.8,28.2142137 183,20.110131 L183,2.84217094e-14 C80.7,8.20413306 0,94.047379 0,198.5 C0,302.952621 80.7,388.795867 183,397 L183,376.789819 L183,376.789819 Z" id="Shape" stroke="#96CA4B" stroke-width="6" fill="#96CA4B"></path>
                    <path d="M215,2.84217094e-14 L215,20.110131 C306.2,28.2142137 378,105.152974 378,198.5 C378,291.847026 306.2,368.785786 215,376.889869 L215,397 C317.3,388.795867 398,302.952621 398,198.5 C398,94.047379 317.3,8.20413306 215,2.84217094e-14 L215,2.84217094e-14 Z" id="Shape" stroke="#5F7FBF" stroke-width="6" fill="#5F7FBF"></path>
                </g>
            </g>
        </g>
    </g>
</svg>